<?xml version="1.0" encoding="utf-8"?>
<!-- Generator: Adobe Illustrator 24.2.1, SVG Export Plug-In . SVG Version: 6.00 Build 0)  -->
<svg version="1.1" id="Layer_1" xmlns="http://www.w3.org/2000/svg" xmlns:xlink="http://www.w3.org/1999/xlink" 
	 viewBox="80 110 240 130"  xml:space="preserve">
<style type="text/css">
	.st0{fill:#FFFFFF;}
	.st1{fill:#499953;}
	.st2{fill:none;stroke:#1A1A1A;stroke-width:8;stroke-miterlimit:10;}
	.st3{fill:#1A1A1A;}
	.st4{fill:#899BCE;}
</style>
<g id="XMLID_3_">
	<g>
		<polygon class="st0" points="310.6,173 310.6,227.3 254.1,227.3 254.1,227 254.1,173 254.1,173 		"/>
		<polygon class="st0" points="254.1,227 254.1,227.3 200.6,227.3 200.6,227 200.6,173 200.6,173 254.1,173 254.1,173 		"/>
		<polygon class="st0" points="200.6,227 200.6,227.3 144.1,227.3 144.1,227 144.1,173 144.1,173 200.6,173 200.6,173 		"/>
		<polygon class="st1" points="144.1,227 144.1,227.3 89.5,227.3 89.5,173 144.1,173 144.1,173 		"/>
	</g>
	<g>
		<polygon class="st2" points="254.1,173 310.6,173 310.6,227.3 254.1,227.3 200.6,227.3 144.1,227.3 89.5,227.3 89.5,173 
			144.1,173 200.6,173 		"/>
		<line class="st2" x1="200.6" y1="173" x2="200.6" y2="227"/>
		<line class="st2" x1="254.1" y1="173" x2="254.1" y2="227"/>
		<line class="st2" x1="144.1" y1="173" x2="144.1" y2="227"/>
	</g>
</g>
<g>
	<path class="st0" d="M121,203.6l8.3,0.5c-0.4,3.6-1.7,6.4-4,8.3c-2.3,1.9-5.1,2.9-8.4,2.9c-4,0-7.3-1.3-9.7-4
		c-2.5-2.7-3.7-6.3-3.7-11c0-4.6,1.2-8.4,3.5-11.2c2.3-2.8,5.6-4.3,9.8-4.3c3.9,0,6.9,1.1,9,3.3c2.1,2.2,3.3,5,3.6,8.6l-8.5,0.5
		c0-2-0.4-3.4-1.1-4.3c-0.8-0.9-1.7-1.3-2.7-1.3c-2.9,0-4.3,2.9-4.3,8.6c0,3.2,0.4,5.4,1.1,6.6c0.7,1.2,1.8,1.7,3.1,1.7
		C119.3,208.5,120.7,206.9,121,203.6z"/>
</g>
<g>
	<path class="st3" d="M177.2,214.9l-1.7-5.8h-7.9l-1.8,5.8h-7.4l9.1-29.6h9.6l9.3,29.6H177.2z M169.2,202.6h4.8l-2.4-8.6
		L169.2,202.6z"/>
</g>
<g>
	<path class="st3" d="M223.9,204.2v10.7h-9.2v-29.6h12.6c3.1,0,5.5,0.4,7.2,1.1c1.6,0.7,2.9,1.8,3.9,3.3c1,1.5,1.4,3.2,1.4,5
		c0,2.8-1,5.1-2.9,6.8c-2,1.7-4.6,2.6-7.9,2.6H223.9z M223.8,197.8h3c2.7,0,4-1,4-2.9c0-1.8-1.2-2.8-3.7-2.8h-3.3V197.8z"/>
</g>
<g>
	<path class="st3" d="M268.4,206.4l8.4-1.5c0.7,2.4,2.5,3.6,5.5,3.6c2.3,0,3.4-0.6,3.4-1.8c0-0.6-0.3-1.1-0.8-1.5
		c-0.5-0.4-1.5-0.7-2.8-0.9c-5.2-1-8.5-2.3-10-3.9c-1.5-1.6-2.2-3.5-2.2-5.7c0-2.8,1.1-5.1,3.2-7c2.1-1.8,5.2-2.8,9.1-2.8
		c6,0,10,2.4,11.9,7.3l-7.5,2.3c-0.8-2-2.4-3-4.7-3c-2,0-3,0.6-3,1.8c0,0.5,0.2,1,0.7,1.3c0.4,0.3,1.3,0.6,2.6,0.9
		c3.5,0.7,6.1,1.4,7.5,2c1.5,0.6,2.7,1.6,3.7,3c1,1.4,1.5,3,1.5,4.9c0,3-1.2,5.4-3.6,7.3c-2.4,1.9-5.6,2.8-9.6,2.8
		C274.5,215.4,270.1,212.4,268.4,206.4z"/>
</g>
<g id="XMLID_1_">
	<g>
		<polygon class="st0" points="254.1,173 254.1,173.3 200.6,173.3 200.6,173 200.6,119 200.6,119 254.1,119 254.1,119 		"/>
		<polygon class="st0" points="200.6,173 200.6,173.3 144.1,173.3 144.1,173 144.1,119 144.1,119 200.6,119 200.6,119 		"/>
		<polygon class="st4" points="144.1,173 144.1,173.3 89.5,173.3 89.5,119 144.1,119 144.1,119 		"/>
	</g>
	<g>
		<polyline class="st2" points="310.7,173.3 254.1,173.3 200.6,173.3 144.1,173.3 89.5,173.3 89.5,119 144.1,119 200.6,119 
			254.1,119 258.1,119 		"/>
		<line class="st2" x1="200.6" y1="119" x2="200.6" y2="173"/>
		<line class="st2" x1="254.1" y1="119" x2="254.1" y2="173"/>
		<line class="st2" x1="144.1" y1="119" x2="144.1" y2="173"/>
	</g>
</g>
<path class="st0" d="M106.4,161v-29.3h11.3c4.9,0,8.6,1.5,11.1,4.4s3.7,6.3,3.7,10.1c0,4.4-1.3,7.9-3.9,10.7
	c-2.6,2.7-6,4.1-10.2,4.1H106.4z M115.4,154.3h2.3c1.5,0,2.7-0.7,3.8-2.2c1-1.4,1.5-3.4,1.5-5.9c0-2.1-0.5-4-1.4-5.5
	c-0.9-1.5-2.2-2.3-3.9-2.3h-2.3V154.3z"/>
<path class="st3" d="M185.7,161h-9.8l-5.1-11.1l-3,4.3v6.8h-8.5v-29.3h8.5v12.1l8.1-12.1h8.1l-7.4,10.7L185.7,161z"/>
<path class="st3" d="M238.9,130.7v19.4c0,3.7-1.1,6.3-3.3,7.9s-5,2.4-8.5,2.4c-3.7,0-6.7-0.8-8.9-2.3s-3.4-4.1-3.4-7.6v-19.9h9.2
	v18.8c0,1.4,0.3,2.4,0.9,3.1c0.6,0.6,1.5,1,2.8,1c1.1,0,2-0.2,2.7-0.7c0.7-0.5,1.1-1,1.2-1.6c0.1-0.6,0.2-1.7,0.2-3.4v-17.2H238.9z"
	/>
</svg>
