<?xml version="1.0" encoding="utf-8"?>
<!-- Generator: Adobe Illustrator 24.2.1, SVG Export Plug-In . SVG Version: 6.00 Build 0)  -->
<svg version="1.1" id="Layer_1" xmlns="http://www.w3.org/2000/svg" xmlns:xlink="http://www.w3.org/1999/xlink" x="0px" y="0px"
	 viewBox="0 0 400 400" style="enable-background:new 0 0 400 400;" xml:space="preserve">
<style type="text/css">
	.st0{fill:#A6BFF5;}
	.st1{fill:#FFFFFF;}
	.st2{fill:#499953;}
	.st3{fill:none;stroke:#000000;stroke-width:22;stroke-linecap:round;stroke-linejoin:round;}
</style>
<g id="XMLID_1_">
	<g>
		<path class="st0" d="M322.9,190.4c17.2,31.6,37.4,78,21.7,112.9C325.3,346.6,205,341.5,205,341.5c-0.1,0.4,31.8-133.8,117.2-150.6
			L322.9,190.4z"/>
		<path class="st1" d="M322.9,190.4l-0.8,0.4C236.8,207.7,204.9,341.9,205,341.5c0,0-26.8-132.6-119.2-154.9l-1.7-1
			c0.4-0.7,0.8-1.3,1.1-2l0.3,0.2l236,5.1l0.4-0.2C322.3,189.2,322.6,189.8,322.9,190.4z"/>
		<path class="st1" d="M322,188.7l-0.4,0.2l-236-5.1l-0.3-0.2c0.9-1.5,1.7-2.9,2.6-4.3C131.1,107.8,179.2,63,202.3,63
			c28,0,81.1,58.3,114.4,116.3C318.4,182.2,320.2,185.4,322,188.7z"/>
		<path class="st2" d="M205,341.5c0,0-126.8,0.2-146.3-38c-16.6-32.3,5.8-83.9,25.5-117.9l1.7,1C178.2,208.8,205,341.5,205,341.5z"
			/>
	</g>
	<g>
		<path class="st3" d="M322,188.7c-1.8-3.3-3.6-6.5-5.3-9.4C283.4,121.3,230.2,63,202.3,63c-23,0-71.2,44.9-114.5,116.3
			c-0.9,1.4-1.7,2.9-2.6,4.3c-0.4,0.7-0.8,1.3-1.1,2c-19.7,34-42,85.5-25.5,117.9c19.6,38.2,146.3,38,146.3,38s120.3,5.1,139.7-38.2
			c15.7-34.9-4.6-81.3-21.7-112.9C322.6,189.8,322.3,189.2,322,188.7z"/>
		<path class="st3" d="M322.2,190.8C236.8,207.7,204.9,341.9,205,341.5c0,0-26.8-132.6-119.2-154.9"/>
	</g>
</g>
</svg>
